<svg width="1073" height="378" viewBox="0 0 1073 378" fill="none" xmlns="http://www.w3.org/2000/svg">
<path d="M14.7259 28.668C15.4385 12.6333 28.6457 0 44.6963 0H1028.3C1044.35 0 1057.56 12.6333 1058.27 28.668L1073 360H0L14.7259 28.668Z" fill="#DFDFDF"/>
<path d="M14.7259 28.668C15.4385 12.6333 28.6457 0 44.6963 0H1028.3C1044.35 0 1057.56 12.6333 1058.27 28.668L1073 360H0L14.7259 28.668Z" fill="url(#paint0_linear)"/>
<path d="M0 360H1073C1073 360 1073 378 1053.05 378C1033.09 378 39.3911 378 19.6956 378C3.43323e-05 378 0 360 0 360Z" fill="#A09296"/>
<path d="M0 360H1073C1073 360 1073 378 1053.05 378C1033.09 378 39.3911 378 19.6956 378C3.43323e-05 378 0 360 0 360Z" fill="url(#paint1_linear)"/>
<defs>
<linearGradient id="paint0_linear" x1="536.5" y1="0" x2="536.5" y2="360" gradientUnits="userSpaceOnUse">
<stop stop-color="white"/>
<stop offset="1" stop-color="white" stop-opacity="0"/>
</linearGradient>
<linearGradient id="paint1_linear" x1="536.5" y1="360" x2="536.5" y2="378" gradientUnits="userSpaceOnUse">
<stop stop-color="#DFDFDF"/>
<stop offset="1" stop-color="white" stop-opacity="0"/>
</linearGradient>
</defs>
</svg>
