<svg width="24" height="24" viewBox="0 0 24 24" fill="none" xmlns="http://www.w3.org/2000/svg">
<path d="M14.8867 9.16144C15.8132 10.2111 16.3754 11.59 16.3754 13.1001C16.3754 14.6103 15.8132 15.9891 14.8867 17.0388" stroke="#625C5C" stroke-width="1.3" stroke-linecap="round"/>
<path d="M16.8213 6.54456C18.5556 8.07222 19.6497 10.3095 19.6497 12.8023C19.6497 15.2951 18.5556 17.5324 16.8213 19.0601" stroke="#625C5C" stroke-width="1.5" stroke-linecap="round"/>
<path d="M18.9346 4.31714C21.3723 6.33775 22.925 9.38876 22.925 12.8024C22.925 16.2161 21.3723 19.2671 18.9346 21.2877" stroke="#625C5C" stroke-width="1.8" stroke-linecap="round"/>
<path d="M8.63428 7.88989L10.1533 6.97847C10.4675 6.78995 10.8672 7.01628 10.8672 7.3827V10.1229L8.63428 7.88989Z" fill="#625C5C"/>
<path d="M5.95603 9.36224C5.95498 9.36286 5.95434 9.36398 5.95434 9.36519V9.36519C5.95434 9.36708 5.95281 9.36862 5.95092 9.36862H2.78613C2.23385 9.36862 1.78613 9.81633 1.78613 10.3686V14.9187C1.78613 15.4709 2.23385 15.9187 2.78613 15.9187H5.6446C5.85112 15.9187 6.05257 15.9826 6.22129 16.1017L9.43905 18.3731C10.1015 18.8407 11.0157 18.3669 11.0157 17.5561V13.6743C11.0157 13.4091 10.9104 13.1547 10.7228 12.9672L7.03342 9.27781C6.82977 9.07416 6.51421 9.03391 6.26597 9.17993L5.95603 9.36224Z" fill="#625C5C"/>
<rect x="0.842285" width="32.7502" height="1.19092" rx="0.595458" transform="rotate(45 0.842285 0)" fill="#625C5C"/>
</svg>
